<?xml version="1.0" encoding="utf-8"?>
<!-- Generator: Adobe Illustrator 21.0.2, SVG Export Plug-In . SVG Version: 6.00 Build 0)  -->
<svg version="1.1" id="Layer_1" xmlns="http://www.w3.org/2000/svg" xmlns:xlink="http://www.w3.org/1999/xlink" x="0px" y="0px"
	 viewBox="0 0 32.5 40.4" style="enable-background:new 0 0 32.5 40.4;" xml:space="preserve">
<style type="text/css">
	.st0{fill:none;}
	.st1{fill:#FFFFFF;}
</style>
<path class="st0" d="M15.2,27.3l-0.8,4c0,0.7,4.4,0.7,4.4,0l-0.8-4c0.8-0.4,1.4-1.1,1.4-2c0-1.3-1.2-2.4-2.7-2.4
	c-1.5,0-2.7,1.1-2.7,2.4C13.9,26.2,14.4,26.9,15.2,27.3z"/>
<g>
	<path class="st1" d="M0,20.6l0,15.1c0,2.6,2.7,4.8,5.7,4.8h21.7c3,0,5.1-2.2,5.1-4.8l0-15c0-2.6-2.4-4.7-5.3-4.8H5.3
		C2.4,15.9,0,18,0,20.6z M16.6,22.9c1.5,0,2.7,1.1,2.7,2.4c0,0.9-0.6,1.6-1.4,2l0.8,4c0,0.7-4.4,0.7-4.4,0l0.8-4
		c-0.8-0.4-1.4-1.1-1.4-2C13.9,24,15.1,22.9,16.6,22.9z"/>
	<path class="st1" d="M10.8,9.6c0-2.6,2.4-4.8,5.4-4.8c3,0,5.4,2.1,5.4,4.8l0,3h5.4l0-3c0-5.3-4.9-9.6-10.8-9.6
		c-6,0-10.8,4.3-10.8,9.6l0,3h5.4L10.8,9.6z"/>
</g>
</svg>
