<svg xmlns="http://www.w3.org/2000/svg" xmlns:xlink="http://www.w3.org/1999/xlink" viewBox="0 0 113.39 113.39"><defs><style>.cls-1{fill:none;}.cls-2{fill:#fff;}.cls-3{clip-path:url(#clip-path);}.cls-4{fill:#003c71;}</style><clipPath id="clip-path" transform="translate(0 -3.38)"><rect class="cls-1" width="433.63" height="116.77"/></clipPath></defs><title>Asset 1</title><g id="Layer_2" data-name="Layer 2"><g id="Layer_1-2" data-name="Layer 1"><rect class="cls-2" width="113.39" height="113.39"/><g class="cls-3"><path class="cls-4" d="M49.71,14.66s0,29.06,0,30.38c0,2.13,2.61,12,16.18,12s15.73-9.8,15.73-11.88V27.75l-10.4-10.9V44c0,.55,0,3.31-5.36,3.31-5.6,0-5.6-2.72-5.6-3.37V14.69Z" transform="translate(0 -3.38)"/></g><polygon class="cls-4" points="72.29 11.29 82.2 21.56 89.37 21.56 89.37 52.98 100.19 52.98 100.19 21.56 108.56 21.56 108.56 11.29 72.29 11.29"/><g class="cls-3"><path class="cls-4" d="M44.23,47.41l8.86,9H41.16L21.67,36.13h11.5l3.08,3.15a9.51,9.51,0,0,0,.73-4,11.06,11.06,0,1,0-22.12.15,11,11,0,0,0,11.06,11,6.36,6.36,0,0,0,2-.22c.1,0,8,8.53,8,8.57-2.26,1.61-6.59,2.42-10,2.42-11.86,0-21.09-10.11-21.09-21.61a21.42,21.42,0,0,1,42.85.44,22.35,22.35,0,0,1-3.44,11.35" transform="translate(0 -3.38)"/></g></g></g></svg>