<svg xmlns="http://www.w3.org/2000/svg" width="224.113" height="19.331" viewBox="0 0 224.113 19.331">
  <defs>
    <style>
      .a {
        fill: #fff;
      }
    </style>
  </defs>
  <title>strapline</title>
  <g>
    <path class="a" d="M4.654,9.617v-.96a1.319,1.319,0,0,1-.436.215,6.065,6.065,0,0,1-.9.194,2.473,2.473,0,0,0-.945.3.907.907,0,0,0-.4.823.846.846,0,0,0,.316.711,1.007,1.007,0,0,0,.6.192,2.011,2.011,0,0,0,1.21-.4,1.345,1.345,0,0,0,.553-1.084M6.587,6.781v4.062a2.205,2.205,0,0,0,.129.887.5.5,0,0,0,.308.284v.3H4.9a4.158,4.158,0,0,1-.119-.419,4.234,4.234,0,0,1-.066-.47,3.726,3.726,0,0,1-.88.717,3.085,3.085,0,0,1-1.546.369,2.694,2.694,0,0,1-1.094-.222,1.963,1.963,0,0,1-.849-.708A2.238,2.238,0,0,1,0,10.321a2.291,2.291,0,0,1,.622-1.68,2.712,2.712,0,0,1,1.564-.717l1.777-.268A1.1,1.1,0,0,0,4.425,7.5a.5.5,0,0,0,.229-.439.784.784,0,0,0-.223-.6,1,1,0,0,0-.512-.235,2.982,2.982,0,0,0-.562-.042,1.164,1.164,0,0,0-.956.358,1.308,1.308,0,0,0-.257.685H.24a3.026,3.026,0,0,1,.629-1.7,2.4,2.4,0,0,1,1.225-.753,5.63,5.63,0,0,1,1.5-.169,5,5,0,0,1,1.246.152,2.648,2.648,0,0,1,1.2.635,1.859,1.859,0,0,1,.54,1.384"/>
    <path class="a" d="M19.025,4.822v7.5h-1.89V11.268h-.028a2.472,2.472,0,0,1-2.285,1.256,2.519,2.519,0,0,1-1.832-.663,2.85,2.85,0,0,1-.721-2.1V4.822h1.974V9.476a1.365,1.365,0,0,0,.415,1.125,1.348,1.348,0,0,0,.869.257,1.65,1.65,0,0,0,.684-.145,1.324,1.324,0,0,0,.589-.524,1.96,1.96,0,0,0,.251-1.038V4.822Z"/>
    <path class="a" d="M27.656,7.135v5.19H25.681V7.77a2.768,2.768,0,0,0-.054-.628,1.047,1.047,0,0,0-.339-.591,1.342,1.342,0,0,0-.891-.261,1.5,1.5,0,0,0-1.1.438,1.819,1.819,0,0,0-.447,1.3v4.3H20.871v-7.5h1.89v1.1h.028a3.133,3.133,0,0,1,.387-.538,2.267,2.267,0,0,1,.711-.525,2.7,2.7,0,0,1,1.159-.235,2.729,2.729,0,0,1,1.854.636,2.421,2.421,0,0,1,.755,1.875"/>
    <path class="a" d="M31.52,3.933H29.545V2.1H31.52Zm-1.975.889H31.52v7.5H29.545Z"/>
    <polygon class="a" points="40.164 4.822 37.456 12.326 35.382 12.326 32.688 4.822 34.889 4.822 36.441 10.351 36.469 10.351 38.062 4.822 40.164 4.822"/>
    <path class="a" d="M42.712,7.808h3.061a1.768,1.768,0,0,0-.566-1.245,1.474,1.474,0,0,0-.957-.335,1.4,1.4,0,0,0-1.076.42,2,2,0,0,0-.462,1.16m2.976,2.3h2.031a3.307,3.307,0,0,1-.8,1.424,3.107,3.107,0,0,1-1.187.754,3.912,3.912,0,0,1-1.311.221,4.431,4.431,0,0,1-1.909-.378,2.863,2.863,0,0,1-1.329-1.29,5.218,5.218,0,0,1-.5-2.437,4.978,4.978,0,0,1,.1-.974,4.119,4.119,0,0,1,.465-1.262A2.971,2.971,0,0,1,42.33,5.072a3.8,3.8,0,0,1,1.948-.466,3.918,3.918,0,0,1,1.573.31,2.931,2.931,0,0,1,1.368,1.228,5.083,5.083,0,0,1,.585,2.6v.352H42.657a3.518,3.518,0,0,0,.128.726,1.536,1.536,0,0,0,.482.757,1.754,1.754,0,0,0,1.153.35,1.528,1.528,0,0,0,.783-.208,1.052,1.052,0,0,0,.486-.61"/>
    <path class="a" d="M49.076,12.326v-7.5h1.89v1.3h.028a3.62,3.62,0,0,1,.734-1.033,1.887,1.887,0,0,1,1.325-.462,3.337,3.337,0,0,1,.381.027v2a3.689,3.689,0,0,0-.565-.028,2.1,2.1,0,0,0-1.154.279,1.332,1.332,0,0,0-.535.678,2.391,2.391,0,0,0-.13.834v3.907Z"/>
    <path class="a" d="M60.556,7.088H58.623a1.184,1.184,0,0,0-.292-.669A1.4,1.4,0,0,0,57.3,6.108a1.557,1.557,0,0,0-1.008.243.59.59,0,0,0-.2.486c.012.228.175.4.488.509a7.562,7.562,0,0,0,1.165.292,11.054,11.054,0,0,1,1.391.346,2.94,2.94,0,0,1,1.165.673,1.741,1.741,0,0,1,.488,1.272,2.431,2.431,0,0,1-.349,1.326,2.3,2.3,0,0,1-.855.786,3.745,3.745,0,0,1-1.075.375,5.312,5.312,0,0,1-1.008.1,5.835,5.835,0,0,1-1.682-.228,2.93,2.93,0,0,1-1.347-.8,2.362,2.362,0,0,1-.582-1.564h2.032a.938.938,0,0,0,.353.789,2.078,2.078,0,0,0,1.283.312,1.519,1.519,0,0,0,1.008-.282.653.653,0,0,0,.246-.494q-.018-.367-.484-.538a6.772,6.772,0,0,0-1.154-.295,11.136,11.136,0,0,1-1.377-.339A2.843,2.843,0,0,1,54.635,8.4a1.77,1.77,0,0,1-.484-1.283,2.516,2.516,0,0,1,.266-1.135,2.258,2.258,0,0,1,.939-.962,3.723,3.723,0,0,1,1.827-.407,5.7,5.7,0,0,1,1.491.173,2.61,2.61,0,0,1,1.263.724,2.523,2.523,0,0,1,.617,1.579"/>
    <path class="a" d="M64.235,3.933H62.26V2.1h1.975Zm-1.974.889h1.975v7.5H62.261Z"/>
    <path class="a" d="M68.338,2.791V4.821h1.227V6.232H68.338v4.076a.607.607,0,0,0,.108.467q.131.142.711.14c.129,0,.266-.011.409-.028v1.495q-.465.026-.931.028h-.254a3.215,3.215,0,0,1-1.282-.2,1.1,1.1,0,0,1-.591-.565,2.079,2.079,0,0,1-.144-.853V6.232H65.348V4.821h1.015V2.791Z"/>
    <path class="a" d="M77.517,4.822,74.936,12.2a16.033,16.033,0,0,1-.785,2.051,1.823,1.823,0,0,1-.81.9,3.045,3.045,0,0,1-1.311.2c-.137,0-.283,0-.439-.009s-.306-.012-.45-.019v-1.58a2.38,2.38,0,0,0,.381.028,1.416,1.416,0,0,0,.851-.178,1.4,1.4,0,0,0,.447-.95L70.055,4.822h2.2l1.608,5.53h.028l1.538-5.53Z"/>
    <path class="a" d="M84.862,6.221v6.094H82.887V6.221H81.8V4.81h1.086V4.2a2.1,2.1,0,0,1,.593-1.654,2.334,2.334,0,0,1,1.607-.49c.286,0,.506,0,.662.008s.274.012.354.02V3.682h-.55q-.487-.005-.6.183a1.245,1.245,0,0,0-.092.649v.3h1.284V6.221Z"/>
    <path class="a" d="M92.208,8.572a3.736,3.736,0,0,0-.13-1.018,1.822,1.822,0,0,0-.531-.887,1.917,1.917,0,0,0-2.291,0,1.82,1.82,0,0,0-.53.887,3.7,3.7,0,0,0-.13,1.018,3.707,3.707,0,0,0,.13,1.019,1.817,1.817,0,0,0,.53.886,1.917,1.917,0,0,0,2.291,0,1.819,1.819,0,0,0,.531-.886,3.742,3.742,0,0,0,.13-1.019m2.031,0a4.334,4.334,0,0,1-.547,2.228,3.324,3.324,0,0,1-1.4,1.3,4.443,4.443,0,0,1-3.782,0,3.324,3.324,0,0,1-1.4-1.3,4.334,4.334,0,0,1-.547-2.228,4.334,4.334,0,0,1,.547-2.228,3.33,3.33,0,0,1,1.4-1.3,4.451,4.451,0,0,1,3.782,0,3.33,3.33,0,0,1,1.4,1.3,4.334,4.334,0,0,1,.547,2.228"/>
    <path class="a" d="M95.592,12.326v-7.5h1.89v1.3h.028a3.62,3.62,0,0,1,.734-1.033,1.887,1.887,0,0,1,1.325-.462,3.337,3.337,0,0,1,.381.027v2a3.683,3.683,0,0,0-.564-.028,2.1,2.1,0,0,0-1.155.279,1.332,1.332,0,0,0-.535.678,2.412,2.412,0,0,0-.13.834v3.907Z"/>
    <path class="a" d="M107.225,2.791V4.821h1.227V6.232h-1.227v4.076a.607.607,0,0,0,.108.467c.088.095.325.141.71.14.13,0,.266-.011.41-.028v1.495q-.465.026-.931.028h-.255a3.21,3.21,0,0,1-1.281-.2,1.1,1.1,0,0,1-.591-.565,2.064,2.064,0,0,1-.144-.853V6.232h-1.016V4.821h1.016V2.791Z"/>
    <path class="a" d="M116.488,7.135v5.19h-1.975V7.77a2.772,2.772,0,0,0-.054-.628,1.047,1.047,0,0,0-.339-.591,1.342,1.342,0,0,0-.891-.261,1.5,1.5,0,0,0-1.1.438,1.819,1.819,0,0,0-.447,1.3v4.3H109.7V2.2h1.975v3.6h.027a1.773,1.773,0,0,1,.779-.818,2.829,2.829,0,0,1,1.394-.352,2.729,2.729,0,0,1,1.854.636,2.421,2.421,0,0,1,.755,1.875"/>
    <path class="a" d="M119.784,7.808h3.061a1.772,1.772,0,0,0-.566-1.245,1.474,1.474,0,0,0-.957-.335,1.4,1.4,0,0,0-1.076.42,2,2,0,0,0-.462,1.16m2.976,2.3h2.031a3.307,3.307,0,0,1-.8,1.424,3.107,3.107,0,0,1-1.187.754,3.915,3.915,0,0,1-1.311.221,4.431,4.431,0,0,1-1.909-.378,2.865,2.865,0,0,1-1.33-1.29,5.218,5.218,0,0,1-.5-2.437,5.051,5.051,0,0,1,.1-.974,4.143,4.143,0,0,1,.465-1.262A2.985,2.985,0,0,1,119.4,5.072a3.808,3.808,0,0,1,1.948-.466,3.911,3.911,0,0,1,1.572.31,2.929,2.929,0,0,1,1.369,1.228,5.074,5.074,0,0,1,.585,2.6v.352h-5.148a3.646,3.646,0,0,0,.128.726,1.545,1.545,0,0,0,.483.757,1.75,1.75,0,0,0,1.153.35,1.528,1.528,0,0,0,.783-.208,1.049,1.049,0,0,0,.486-.61"/>
    <path class="a" d="M130.844,18.99V4.92h3.544V7.353h.053a6.811,6.811,0,0,1,1.375-1.938,3.549,3.549,0,0,1,2.486-.866,6.458,6.458,0,0,1,.714.053V8.358a7.017,7.017,0,0,0-1.058-.053,3.945,3.945,0,0,0-2.166.524,2.505,2.505,0,0,0-1,1.27,4.518,4.518,0,0,0-.244,1.565V18.99Z"/>
    <path class="a" d="M143.9,10.518h5.74a3.319,3.319,0,0,0-1.061-2.334,2.769,2.769,0,0,0-1.8-.629,2.635,2.635,0,0,0-2.017.788,3.741,3.741,0,0,0-.866,2.175m5.581,4.311h3.808a6.237,6.237,0,0,1-1.5,2.67,5.833,5.833,0,0,1-2.227,1.413,7.354,7.354,0,0,1-2.457.413,8.281,8.281,0,0,1-3.58-.709,5.374,5.374,0,0,1-2.493-2.418,9.792,9.792,0,0,1-.935-4.57,9.394,9.394,0,0,1,.188-1.826,7.734,7.734,0,0,1,.873-2.366,5.594,5.594,0,0,1,2.03-2.049,7.143,7.143,0,0,1,3.653-.873,7.322,7.322,0,0,1,2.948.581,5.5,5.5,0,0,1,2.567,2.3,9.51,9.51,0,0,1,1.1,4.865v.661h-9.652a6.774,6.774,0,0,0,.239,1.362,2.886,2.886,0,0,0,.9,1.42,3.283,3.283,0,0,0,2.162.657,2.88,2.88,0,0,0,1.468-.391,1.973,1.973,0,0,0,.913-1.144"/>
    <path class="a" d="M163.66,13.91v-1.8a2.533,2.533,0,0,1-.82.4,11.489,11.489,0,0,1-1.692.364,4.64,4.64,0,0,0-1.772.571,1.7,1.7,0,0,0-.74,1.544,1.58,1.58,0,0,0,.591,1.332,1.889,1.889,0,0,0,1.127.361,3.768,3.768,0,0,0,2.268-.745,2.527,2.527,0,0,0,1.039-2.032m3.623-5.316v7.617a4.126,4.126,0,0,0,.241,1.663.935.935,0,0,0,.579.532v.555H164.11a7.718,7.718,0,0,1-.222-.783,8.1,8.1,0,0,1-.122-.883,7.046,7.046,0,0,1-1.65,1.345,5.781,5.781,0,0,1-2.9.691,5.036,5.036,0,0,1-2.051-.416,3.66,3.66,0,0,1-1.593-1.327,4.2,4.2,0,0,1-.641-2.356,4.3,4.3,0,0,1,1.166-3.15,5.086,5.086,0,0,1,2.933-1.345l3.332-.5a2.076,2.076,0,0,0,.866-.287.932.932,0,0,0,.43-.822A1.467,1.467,0,0,0,163.241,8a1.88,1.88,0,0,0-.96-.443,5.656,5.656,0,0,0-1.054-.079,2.187,2.187,0,0,0-1.792.672,2.439,2.439,0,0,0-.482,1.286h-3.571a5.681,5.681,0,0,1,1.18-3.191,4.482,4.482,0,0,1,2.3-1.41,10.48,10.48,0,0,1,2.818-.318,9.42,9.42,0,0,1,2.335.286A4.983,4.983,0,0,1,166.27,6a3.491,3.491,0,0,1,1.013,2.6"/>
    <rect class="a" x="170.666" width="3.703" height="18.99"/>
    <polygon class="a" points="190.982 11.486 188.824 18.99 186.793 18.99 185.622 13.516 185.594 13.516 184.423 18.99 182.392 18.99 180.276 11.486 182.378 11.486 183.548 16.874 183.577 16.874 184.635 11.486 186.623 11.486 187.752 16.874 187.78 16.874 188.951 11.486 190.982 11.486"/>
    <path class="a" d="M196.948,15.236a3.769,3.769,0,0,0-.13-1.018,1.818,1.818,0,0,0-.531-.887,1.917,1.917,0,0,0-2.291,0,1.816,1.816,0,0,0-.53.887,4.067,4.067,0,0,0,0,2.037,1.824,1.824,0,0,0,.53.887,1.917,1.917,0,0,0,2.291,0,1.826,1.826,0,0,0,.531-.887,3.774,3.774,0,0,0,.13-1.019m2.031,0a4.334,4.334,0,0,1-.547,2.228,3.33,3.33,0,0,1-1.4,1.3,4.451,4.451,0,0,1-3.782,0,3.33,3.33,0,0,1-1.4-1.3,4.334,4.334,0,0,1-.547-2.228,4.334,4.334,0,0,1,.547-2.228,3.324,3.324,0,0,1,1.4-1.3,4.443,4.443,0,0,1,3.782,0,3.324,3.324,0,0,1,1.4,1.3,4.334,4.334,0,0,1,.547,2.228"/>
    <path class="a" d="M200.332,18.99v-7.5h1.89v1.3h.028a3.624,3.624,0,0,1,.734-1.034,1.891,1.891,0,0,1,1.325-.462,3.338,3.338,0,0,1,.381.028v2a3.815,3.815,0,0,0-.565-.027,2.1,2.1,0,0,0-1.154.279,1.334,1.334,0,0,0-.535.677,2.415,2.415,0,0,0-.13.835V18.99Z"/>
    <rect class="a" x="205.887" y="8.863" width="1.975" height="10.128"/>
    <path class="a" d="M211.361,15.294a3.547,3.547,0,0,0,.139.983,2.079,2.079,0,0,0,.5.9,1.352,1.352,0,0,0,.986.391A1.63,1.63,0,0,0,214,17.253a1.727,1.727,0,0,0,.563-.791,3.035,3.035,0,0,0,.174-1.054,4.353,4.353,0,0,0-.138-1.159,1.836,1.836,0,0,0-.514-.894,1.667,1.667,0,0,0-2.034-.027,1.793,1.793,0,0,0-.529.844,3.71,3.71,0,0,0-.156,1.123m5.261-6.432V18.99h-1.932v-.946h-.028a2.122,2.122,0,0,1-.959.889,3.059,3.059,0,0,1-3.023-.334,3.313,3.313,0,0,1-1.026-1.485,5.686,5.686,0,0,1-.324-1.961A4.9,4.9,0,0,1,209.772,13a3.042,3.042,0,0,1,1.134-1.284,2.926,2.926,0,0,1,1.541-.425,2.513,2.513,0,0,1,1.446.406,2.594,2.594,0,0,1,.726.765h.028v-3.6Z"/>
    <path class="a" d="M220.583,5.666h.6a1.358,1.358,0,0,0,.565-.078q.234-.094.245-.464a.411.411,0,0,0-.231-.4,1.112,1.112,0,0,0-.495-.09h-.688Zm0,.428V7.538h-.5V4.207h1.268a1.415,1.415,0,0,1,.884.227.859.859,0,0,1,.293.72.87.87,0,0,1-.248.66,1.067,1.067,0,0,1-.615.257l.947,1.467h-.566l-.878-1.444Zm-1.741-.229a2.515,2.515,0,0,0,.316,1.244,2.283,2.283,0,0,0,.84.853,2.361,2.361,0,0,0,1.2.317,2.331,2.331,0,0,0,1.187-.317,2.291,2.291,0,0,0,.835-.853,2.525,2.525,0,0,0,.316-1.244,2.493,2.493,0,0,0-.316-1.23,2.3,2.3,0,0,0-.835-.851,2.332,2.332,0,0,0-1.187-.319,2.362,2.362,0,0,0-1.2.319,2.29,2.29,0,0,0-.84.851,2.483,2.483,0,0,0-.316,1.23m2.353,2.9a3,3,0,0,1-1.467-.379,2.871,2.871,0,0,1,0-5.02,3.016,3.016,0,0,1,2.923,0,2.878,2.878,0,0,1,0,5.02,2.972,2.972,0,0,1-1.457.379"/>
  </g>
</svg>
